<?xml version="1.0" encoding="UTF-8"?>
<svg xmlns="http://www.w3.org/2000/svg" xmlns:xlink="http://www.w3.org/1999/xlink" viewBox="0 0 200 200" width="200px" height="200px">
<g id="surface76788903">
<path style=" stroke:none;fill-rule:nonzero;fill:rgb(40.000001%,57.647061%,75.686276%);fill-opacity:1;" d="M 142 164 L 58 164 C 45.851562 164 36 154.148438 36 142 L 36 58 C 36 45.851562 45.851562 36 58 36 L 142 36 C 154.148438 36 164 45.851562 164 58 L 164 142 C 164 154.148438 154.148438 164 142 164 Z M 142 164 "/>
<path style=" stroke:none;fill-rule:nonzero;fill:rgb(93.333334%,92.54902%,85.09804%);fill-opacity:1;" d="M 139.867188 98.078125 C 139.867188 91.4375 137.257812 85.410156 133.027344 80.933594 C 133.820312 76.527344 133.730469 70.328125 131.953125 65 C 123.003906 65 115.722656 71.894531 114.546875 73 L 88.941406 73 C 87.761719 71.894531 80.902344 65 71.953125 65 C 70.351562 69.800781 69.777344 75.464844 70.261719 79.589844 C 65.222656 84.160156 62.042969 90.738281 62.042969 98.078125 C 62.042969 111.894531 73.242188 122.996094 87.058594 122.996094 L 91.953125 122.996094 C 87.945312 124.832031 84.683594 128.511719 83.953125 132.996094 C 79.953125 132.996094 74.222656 132.632812 71.589844 128.683594 C 66.671875 121.300781 64.410156 121.300781 61.953125 121.300781 C 59.492188 121.300781 59.292969 123.761719 61.753906 126.222656 C 64.210938 128.683594 64.210938 128.683594 66.671875 133.601562 C 68.695312 137.65625 73.953125 141 83.953125 141 L 83.953125 153 L 117.953125 153 L 117.953125 135.308594 C 117.953125 129.875 114.589844 125.125 109.953125 123 L 114.851562 123 C 128.667969 123 139.867188 111.894531 139.867188 98.078125 Z M 139.867188 98.078125 "/>
<path style=" stroke:none;fill-rule:nonzero;fill:rgb(12.156863%,12.941177%,16.862746%);fill-opacity:1;" d="M 117.953125 154 C 117.398438 154 116.953125 153.550781 116.953125 153 L 116.953125 135.308594 C 116.953125 130.449219 114.039062 125.972656 109.535156 123.90625 C 109.109375 123.710938 108.875 123.242188 108.976562 122.785156 C 109.074219 122.328125 109.480469 122 109.953125 122 L 114.851562 122 C 128.09375 122 138.867188 111.269531 138.867188 98.078125 C 138.867188 91.949219 136.535156 86.105469 132.300781 81.621094 C 132.085938 81.390625 131.988281 81.070312 132.042969 80.757812 C 132.710938 77.046875 132.824219 71.304688 131.226562 66.015625 C 123.863281 66.339844 117.636719 71.464844 115.253906 73.710938 C 115.066406 73.886719 114.800781 74 114.546875 74 L 88.9375 74 C 88.683594 74 88.441406 73.902344 88.253906 73.730469 L 88.070312 73.554688 C 81.914062 67.703125 76.410156 66.183594 72.675781 66.015625 C 71.351562 70.339844 70.792969 75.539062 71.253906 79.472656 C 71.289062 79.792969 71.167969 80.113281 70.929688 80.328125 C 65.917969 84.878906 63.042969 91.351562 63.042969 98.078125 C 63.042969 111.269531 73.816406 122 87.058594 122 L 91.953125 122 C 92.421875 122 92.828125 122.328125 92.929688 122.789062 C 93.03125 123.246094 92.796875 123.714844 92.367188 123.910156 C 88.421875 125.71875 85.574219 129.261719 84.9375 133.160156 C 84.859375 133.644531 84.441406 134 83.953125 134 C 79.285156 134 73.570312 133.457031 70.757812 129.238281 C 66.132812 122.304688 64.195312 122.304688 61.949219 122.304688 C 61.671875 122.304688 61.179688 122.351562 61.054688 122.660156 C 60.882812 123.074219 61.117188 124.175781 62.457031 125.519531 C 65.03125 128.09375 65.078125 128.1875 67.566406 133.15625 C 69.769531 137.570312 75.589844 140 83.953125 140 C 84.503906 140 84.953125 140.449219 84.953125 141 L 84.953125 153 C 84.953125 153.550781 84.503906 154 83.953125 154 C 83.398438 154 82.953125 153.550781 82.953125 153 L 82.953125 141.988281 C 71.359375 141.726562 67.21875 136.941406 65.777344 134.050781 C 63.386719 129.277344 63.386719 129.277344 61.042969 126.933594 C 59.304688 125.195312 58.617188 123.3125 59.207031 121.894531 C 59.625 120.886719 60.625 120.304688 61.949219 120.304688 C 65.125 120.304688 67.570312 120.851562 72.421875 128.128906 C 74.558594 131.339844 79.136719 131.929688 83.132812 131.992188 C 83.855469 128.902344 85.75 126.0625 88.390625 124 L 87.054688 124 C 72.710938 124 61.042969 112.375 61.042969 98.082031 C 61.042969 90.957031 64.011719 84.105469 69.210938 79.199219 C 68.792969 74.792969 69.464844 69.285156 71.003906 64.683594 C 71.140625 64.277344 71.523438 64 71.953125 64 C 76.023438 64 82.335938 65.390625 89.335938 72 L 114.152344 72 C 117.007812 69.378906 123.847656 64 131.949219 64 C 132.378906 64 132.761719 64.277344 132.898438 64.683594 C 134.769531 70.289062 134.757812 76.484375 134.097656 80.613281 C 138.464844 85.421875 140.867188 91.605469 140.867188 98.078125 C 140.867188 112.371094 129.195312 124 114.851562 124 L 113.464844 124 C 116.878906 126.734375 118.953125 130.882812 118.953125 135.308594 L 118.953125 153 C 118.953125 153.550781 118.503906 154 117.953125 154 Z M 117.953125 154 "/>
<path style=" stroke:none;fill-rule:nonzero;fill:rgb(12.156863%,12.941177%,16.862746%);fill-opacity:1;" d="M 131 154 L 69 154 C 56.316406 154 46 143.683594 46 131 L 46 69 C 46 56.316406 56.316406 46 69 46 L 131 46 C 131.550781 46 132 46.449219 132 47 C 132 47.550781 131.550781 48 131 48 L 69 48 C 57.421875 48 48 57.421875 48 69 L 48 131 C 48 142.578125 57.421875 152 69 152 L 131 152 C 142.578125 152 152 142.578125 152 131 L 152 101 C 152 100.449219 152.449219 100 153 100 C 153.550781 100 154 100.449219 154 101 L 154 131 C 154 143.683594 143.683594 154 131 154 Z M 131 154 "/>
<path style=" stroke:none;fill-rule:nonzero;fill:rgb(12.156863%,12.941177%,16.862746%);fill-opacity:1;" d="M 153 97 C 152.449219 97 152 96.550781 152 96 L 152 83 C 152 82.449219 152.449219 82 153 82 C 153.550781 82 154 82.449219 154 83 L 154 96 C 154 96.550781 153.550781 97 153 97 Z M 153 97 "/>
<path style=" stroke:none;fill-rule:nonzero;fill:rgb(12.156863%,12.941177%,16.862746%);fill-opacity:1;" d="M 153 77 C 152.449219 77 152 76.550781 152 76 L 152 69 C 152 68.449219 152.449219 68 153 68 C 153.550781 68 154 68.449219 154 69 L 154 76 C 154 76.550781 153.550781 77 153 77 Z M 153 77 "/>
<path style=" stroke:none;fill-rule:nonzero;fill:rgb(12.156863%,12.941177%,16.862746%);fill-opacity:1;" d="M 142 166 L 58 166 C 44.765625 166 34 155.234375 34 142 L 34 58 C 34 44.765625 44.765625 34 58 34 L 142 34 C 155.234375 34 166 44.765625 166 58 L 166 142 C 166 155.234375 155.234375 166 142 166 Z M 58 38 C 46.972656 38 38 46.972656 38 58 L 38 142 C 38 153.027344 46.972656 162 58 162 L 142 162 C 153.027344 162 162 153.027344 162 142 L 162 58 C 162 46.972656 153.027344 38 142 38 Z M 58 38 "/>
<path style=" stroke:none;fill-rule:nonzero;fill:rgb(0%,0%,0%);fill-opacity:1;" d="M 69.671875 183.484375 L 69.671875 190.617188 C 69.015625 191.558594 68.097656 192.261719 66.914062 192.726562 C 65.738281 193.195312 64.363281 193.429688 62.796875 193.429688 C 61.214844 193.429688 59.808594 193.058594 58.578125 192.3125 C 57.347656 191.574219 56.398438 190.519531 55.726562 189.148438 C 55.054688 187.773438 54.707031 186.183594 54.6875 184.375 L 54.6875 182.679688 C 54.6875 179.753906 55.371094 177.484375 56.742188 175.875 C 58.105469 174.265625 60.027344 173.460938 62.5 173.460938 C 64.53125 173.460938 66.164062 173.980469 67.398438 175.015625 C 68.636719 176.050781 69.394531 177.519531 69.671875 179.421875 L 67.109375 179.421875 C 66.628906 176.855469 65.097656 175.570312 62.515625 175.570312 C 60.796875 175.570312 59.496094 176.171875 58.609375 177.375 C 57.722656 178.582031 57.277344 180.332031 57.265625 182.617188 L 57.265625 184.203125 C 57.265625 186.386719 57.765625 188.121094 58.765625 189.40625 C 59.761719 190.691406 61.109375 191.335938 62.8125 191.335938 C 63.769531 191.335938 64.613281 191.230469 65.335938 191.015625 C 66.054688 190.800781 66.652344 190.441406 67.125 189.929688 L 67.125 185.570312 L 62.625 185.570312 L 62.625 183.484375 Z M 76.242188 178.71875 L 76.242188 193.164062 L 73.773438 193.164062 L 73.773438 178.71875 Z M 73.570312 174.882812 C 73.570312 174.480469 73.691406 174.144531 73.9375 173.875 C 74.183594 173.597656 74.542969 173.460938 75.023438 173.460938 C 75.507812 173.460938 75.871094 173.597656 76.117188 173.875 C 76.367188 174.144531 76.492188 174.480469 76.492188 174.882812 C 76.492188 175.285156 76.367188 175.621094 76.117188 175.890625 C 75.871094 176.15625 75.507812 176.289062 75.023438 176.289062 C 74.542969 176.289062 74.183594 176.15625 73.9375 175.890625 C 73.691406 175.621094 73.570312 175.285156 73.570312 174.882812 Z M 81.070312 175.21875 L 83.546875 175.21875 L 83.546875 178.71875 L 86.242188 178.71875 L 86.242188 180.625 L 83.546875 180.625 L 83.546875 189.585938 C 83.546875 190.164062 83.667969 190.597656 83.90625 190.890625 C 84.144531 191.175781 84.554688 191.320312 85.132812 191.320312 C 85.417969 191.320312 85.808594 191.269531 86.304688 191.164062 L 86.304688 193.164062 C 85.660156 193.339844 85.027344 193.429688 84.414062 193.429688 C 83.308594 193.429688 82.476562 193.097656 81.914062 192.429688 C 81.351562 191.761719 81.070312 190.816406 81.070312 189.585938 L 81.070312 180.625 L 78.445312 180.625 L 78.445312 178.71875 L 81.070312 178.71875 Z M 91.59375 172.65625 L 91.59375 180.46875 C 92.6875 179.125 94.113281 178.453125 95.867188 178.453125 C 98.917969 178.453125 100.457031 180.175781 100.484375 183.617188 L 100.484375 193.164062 L 98.015625 193.164062 L 98.015625 183.601562 C 98.003906 182.558594 97.769531 181.792969 97.304688 181.296875 C 96.835938 180.796875 96.105469 180.546875 95.117188 180.546875 C 94.316406 180.546875 93.613281 180.761719 93.007812 181.1875 C 92.402344 181.613281 91.933594 182.175781 91.59375 182.867188 L 91.59375 193.164062 L 89.125 193.164062 L 89.125 172.65625 Z M 113.15625 193.164062 L 113.101562 191.734375 C 112.144531 192.863281 110.734375 193.429688 108.875 193.429688 C 107.332031 193.429688 106.160156 192.980469 105.351562 192.085938 C 104.550781 191.195312 104.144531 189.871094 104.132812 188.117188 L 104.132812 178.71875 L 106.601562 178.71875 L 106.601562 188.046875 C 106.601562 190.238281 107.492188 191.335938 109.273438 191.335938 C 111.160156 191.335938 112.414062 190.632812 113.039062 189.226562 L 113.039062 178.71875 L 115.507812 178.71875 L 115.507812 193.164062 Z M 131.492188 185.890625 L 131.492188 186.101562 C 131.492188 188.308594 130.984375 190.082031 129.96875 191.421875 C 128.953125 192.761719 127.589844 193.429688 125.882812 193.429688 C 124.054688 193.429688 122.644531 192.785156 121.648438 191.492188 L 121.53125 193.164062 L 119.257812 193.164062 L 119.257812 172.65625 L 121.726562 172.65625 L 121.726562 180.304688 C 122.726562 179.070312 124.101562 178.453125 125.851562 178.453125 C 127.605469 178.453125 128.984375 179.113281 129.984375 180.4375 C 130.988281 181.765625 131.492188 183.582031 131.492188 185.890625 Z M 129.015625 185.820312 C 129.015625 184.136719 128.691406 182.839844 128.046875 181.921875 C 127.394531 181.003906 126.460938 180.546875 125.242188 180.546875 C 123.613281 180.546875 122.441406 181.304688 121.726562 182.820312 L 121.726562 189.0625 C 122.488281 190.578125 123.667969 191.335938 125.265625 191.335938 C 126.449219 191.335938 127.371094 190.878906 128.03125 189.960938 C 128.6875 189.042969 129.015625 187.664062 129.015625 185.820312 Z M 129.015625 185.820312 "/>
</g>
</svg>
